<svg width="360" height="229" viewBox="0 0 360 229" fill="none" xmlns="http://www.w3.org/2000/svg">
<mask id="mask0_913_219" style="mask-type:alpha" maskUnits="userSpaceOnUse" x="0" y="0" width="360" height="229">
<rect y="0.963455" width="360" height="227.807" rx="19.2513" fill="#07051B"/>
</mask>
<g mask="url(#mask0_913_219)">
<g filter="url(#filter0_f_913_219)">
<ellipse cx="151.395" cy="-22.2829" rx="126.063" ry="114.989" transform="rotate(-174.066 151.395 -22.2829)" fill="#114F99"/>
</g>
<g filter="url(#filter1_f_913_219)">
<ellipse cx="338.695" cy="57.0856" rx="120.31" ry="77.8715" transform="rotate(-163.525 338.695 57.0856)" fill="#0025CE"/>
</g>
<g filter="url(#filter2_f_913_219)">
<ellipse cx="369.368" cy="113.584" rx="120.31" ry="77.8715" transform="rotate(-163.525 369.368 113.584)" fill="#5CCAF4"/>
</g>
<g filter="url(#filter3_f_913_219)">
<path d="M252.969 35.9659C355.076 52.0557 376.641 152.089 412.634 153.047C457.88 154.251 458.949 62.6348 426.02 24.2626C387.206 -20.9679 183.772 25.0621 252.969 35.9659Z" fill="#4959EC"/>
</g>
<g filter="url(#filter4_f_913_219)">
<path d="M363.853 40.3467C395.386 43.6242 411.951 28.3972 414.301 5.78611C419.205 -41.395 142.606 -87.1023 96.3653 -52.1372C62.3828 -26.441 62.1226 14.6893 93.2723 32.5414C128.474 52.7159 126.348 56.0854 163.945 46.9381C195.314 39.3057 231.288 25.7331 265.473 20.1001C297.47 14.8277 335.844 37.4354 363.853 40.3467Z" fill="#5CCEFF"/>
</g>
<g filter="url(#filter5_di_913_219)">
<path d="M21.1506 101.895V98.989L28.4375 87.5089H30.9432V91.5316H29.4602L24.8665 98.8015V98.9379H35.2216V101.895H21.1506ZM29.5284 104.963V101.009L29.5966 99.722V87.5089H33.0568V104.963H29.5284ZM38.6404 104.963V102.304L44.8535 96.5515C45.3819 96.0402 45.8251 95.5799 46.183 95.1708C46.5466 94.7618 46.8222 94.3612 47.0097 93.9691C47.1972 93.5714 47.291 93.1424 47.291 92.6822C47.291 92.1708 47.1745 91.7305 46.9415 91.3612C46.7086 90.9862 46.3904 90.6993 45.987 90.5004C45.5836 90.2958 45.1262 90.1936 44.6148 90.1936C44.0807 90.1936 43.6148 90.3015 43.2171 90.5174C42.8194 90.7333 42.5126 91.043 42.2966 91.4464C42.0807 91.8498 41.9728 92.3299 41.9728 92.8867H38.4699C38.4699 91.7447 38.7285 90.7532 39.2455 89.9123C39.7626 89.0714 40.487 88.4208 41.4188 87.9606C42.3506 87.5004 43.4245 87.2703 44.6404 87.2703C45.8904 87.2703 46.9785 87.4919 47.9046 87.935C48.8364 88.3725 49.5609 88.9805 50.0779 89.7589C50.5949 90.5373 50.8535 91.4294 50.8535 92.435C50.8535 93.0941 50.7228 93.7447 50.4614 94.3868C50.2057 95.0288 49.7484 95.7419 49.0893 96.526C48.4302 97.3044 47.5012 98.239 46.3023 99.3299L43.754 101.827V101.946H51.0836V104.963H38.6404ZM54.0784 101.895V98.989L61.3653 87.5089H63.871V91.5316H62.388L57.7943 98.8015V98.9379H68.1494V101.895H54.0784ZM62.4562 104.963V101.009L62.5244 99.722V87.5089H65.9846V104.963H62.4562ZM71.5682 104.963V102.304L77.7813 96.5515C78.3097 96.0402 78.7529 95.5799 79.1108 95.1708C79.4745 94.7618 79.75 94.3612 79.9375 93.9691C80.125 93.5714 80.2188 93.1424 80.2188 92.6822C80.2188 92.1708 80.1023 91.7305 79.8693 91.3612C79.6364 90.9862 79.3182 90.6993 78.9148 90.5004C78.5114 90.2958 78.054 90.1936 77.5426 90.1936C77.0086 90.1936 76.5426 90.3015 76.1449 90.5174C75.7472 90.7333 75.4404 91.043 75.2245 91.4464C75.0086 91.8498 74.9006 92.3299 74.9006 92.8867H71.3978C71.3978 91.7447 71.6563 90.7532 72.1733 89.9123C72.6904 89.0714 73.4148 88.4208 74.3466 87.9606C75.2784 87.5004 76.3523 87.2703 77.5682 87.2703C78.8182 87.2703 79.9063 87.4919 80.8324 87.935C81.7642 88.3725 82.4887 88.9805 83.0057 89.7589C83.5228 90.5373 83.7813 91.4294 83.7813 92.435C83.7813 93.0941 83.6506 93.7447 83.3892 94.3868C83.1336 95.0288 82.6762 95.7419 82.0171 96.526C81.358 97.3044 80.429 98.239 79.2301 99.3299L76.6818 101.827V101.946H84.0114V104.963H71.5682ZM93.8959 101.895V98.989L101.183 87.5089H103.688V91.5316H102.206L97.6118 98.8015V98.9379H107.967V101.895H93.8959ZM102.274 104.963V101.009L102.342 99.722V87.5089H105.802V104.963H102.274ZM117.761 105.202C116.556 105.202 115.482 104.981 114.539 104.537C113.602 104.094 112.857 103.483 112.306 102.705C111.755 101.927 111.468 101.034 111.445 100.029H115.025C115.065 100.705 115.349 101.253 115.877 101.674C116.406 102.094 117.033 102.304 117.761 102.304C118.34 102.304 118.852 102.177 119.295 101.921C119.744 101.659 120.093 101.299 120.343 100.838C120.599 100.373 120.727 99.8385 120.727 99.2362C120.727 98.6225 120.596 98.0828 120.335 97.6169C120.079 97.151 119.724 96.7873 119.269 96.526C118.815 96.2646 118.295 96.1311 117.71 96.1254C117.198 96.1254 116.701 96.2305 116.218 96.4407C115.741 96.651 115.369 96.9379 115.102 97.3015L111.82 96.7135L112.647 87.5089H123.318V90.526H115.69L115.238 94.8981H115.34C115.647 94.4663 116.11 94.1083 116.729 93.8243C117.349 93.5402 118.042 93.3981 118.809 93.3981C119.86 93.3981 120.798 93.6453 121.622 94.1396C122.445 94.6339 123.096 95.3129 123.573 96.1765C124.05 97.0345 124.286 98.0231 124.281 99.1424C124.286 100.319 124.014 101.364 123.462 102.279C122.917 103.188 122.153 103.904 121.17 104.427C120.193 104.944 119.056 105.202 117.761 105.202ZM134.513 105.202C133.616 105.196 132.749 105.046 131.914 104.75C131.084 104.455 130.34 103.975 129.681 103.31C129.022 102.645 128.499 101.765 128.113 100.668C127.732 99.5714 127.542 98.2248 127.542 96.6282C127.547 95.1623 127.715 93.8527 128.045 92.6992C128.38 91.5402 128.857 90.5572 129.476 89.7504C130.101 88.9436 130.849 88.3299 131.718 87.9095C132.587 87.4833 133.562 87.2703 134.641 87.2703C135.806 87.2703 136.834 87.4975 137.726 87.9521C138.618 88.401 139.334 89.0118 139.874 89.7845C140.42 90.5572 140.749 91.4237 140.863 92.3839H137.224C137.082 91.776 136.783 91.2987 136.329 90.9521C135.874 90.6055 135.312 90.4322 134.641 90.4322C133.505 90.4322 132.641 90.9265 132.05 91.9152C131.465 92.9038 131.167 94.2475 131.155 95.9464H131.275C131.536 95.4294 131.888 94.989 132.332 94.6254C132.78 94.2561 133.289 93.9748 133.857 93.7816C134.431 93.5828 135.036 93.4833 135.672 93.4833C136.707 93.4833 137.627 93.7277 138.434 94.2163C139.241 94.6993 139.877 95.364 140.343 96.2106C140.809 97.0572 141.042 98.026 141.042 99.1169C141.042 100.299 140.766 101.35 140.215 102.27C139.67 103.191 138.905 103.912 137.922 104.435C136.945 104.952 135.809 105.208 134.513 105.202ZM134.496 102.304C135.064 102.304 135.573 102.168 136.022 101.895C136.471 101.623 136.823 101.253 137.079 100.787C137.334 100.321 137.462 99.7987 137.462 99.2191C137.462 98.6396 137.334 98.1197 137.079 97.6595C136.829 97.1993 136.482 96.8328 136.039 96.56C135.596 96.2873 135.09 96.151 134.522 96.151C134.096 96.151 133.701 96.2305 133.337 96.3896C132.979 96.5487 132.664 96.7703 132.391 97.0544C132.124 97.3385 131.914 97.668 131.76 98.043C131.607 98.4123 131.53 98.8072 131.53 99.2277C131.53 99.7902 131.658 100.304 131.914 100.77C132.175 101.236 132.528 101.608 132.971 101.887C133.42 102.165 133.928 102.304 134.496 102.304ZM144.618 104.963V102.304L150.831 96.5515C151.36 96.0402 151.803 95.5799 152.161 95.1708C152.524 94.7618 152.8 94.3612 152.988 93.9691C153.175 93.5714 153.269 93.1424 153.269 92.6822C153.269 92.1708 153.152 91.7305 152.919 91.3612C152.686 90.9862 152.368 90.6993 151.965 90.5004C151.561 90.2958 151.104 90.1936 150.593 90.1936C150.059 90.1936 149.593 90.3015 149.195 90.5174C148.797 90.7333 148.49 91.043 148.274 91.4464C148.059 91.8498 147.951 92.3299 147.951 92.8867H144.448C144.448 91.7447 144.706 90.7532 145.223 89.9123C145.74 89.0714 146.465 88.4208 147.397 87.9606C148.328 87.5004 149.402 87.2703 150.618 87.2703C151.868 87.2703 152.956 87.4919 153.882 87.935C154.814 88.3725 155.539 88.9805 156.056 89.7589C156.573 90.5373 156.831 91.4294 156.831 92.435C156.831 93.0941 156.701 93.7447 156.439 94.3868C156.184 95.0288 155.726 95.7419 155.067 96.526C154.408 97.3044 153.479 98.239 152.28 99.3299L149.732 101.827V101.946H157.061V104.963H144.618ZM167.9 104.963L175.136 90.6453V90.526H166.707V87.5089H178.954V90.5686L171.71 104.963H167.9ZM183.603 104.963L190.838 90.6453V90.526H182.409V87.5089H194.657V90.5686L187.412 104.963H183.603ZM205.739 87.5089V104.963H202.049V91.0117H201.947L197.95 93.5174V90.2447L202.271 87.5089H205.739ZM217.692 105.347C216.226 105.341 214.964 104.981 213.908 104.265C212.856 103.549 212.047 102.512 211.479 101.154C210.916 99.7958 210.638 98.1623 210.643 96.2532C210.643 94.3498 210.925 92.7277 211.487 91.3867C212.055 90.0458 212.865 89.026 213.916 88.3271C214.973 87.6225 216.231 87.2703 217.692 87.2703C219.152 87.2703 220.408 87.6225 221.459 88.3271C222.516 89.0316 223.328 90.0544 223.896 91.3953C224.464 92.7305 224.746 94.3498 224.74 96.2532C224.74 98.168 224.456 99.8044 223.888 101.162C223.325 102.52 222.518 103.557 221.467 104.273C220.416 104.989 219.158 105.347 217.692 105.347ZM217.692 102.287C218.692 102.287 219.49 101.784 220.087 100.779C220.683 99.7731 220.979 98.2646 220.973 96.2532C220.973 94.9294 220.837 93.8271 220.564 92.9464C220.297 92.0657 219.916 91.4038 219.422 90.9606C218.933 90.5174 218.356 90.2958 217.692 90.2958C216.697 90.2958 215.902 90.793 215.305 91.7873C214.709 92.7816 214.408 94.2703 214.402 96.2532C214.402 97.5941 214.535 98.7135 214.802 99.6112C215.075 100.503 215.459 101.174 215.953 101.623C216.447 102.066 217.027 102.287 217.692 102.287ZM241.298 105.202C240.025 105.202 238.891 104.983 237.897 104.546C236.909 104.103 236.127 103.495 235.553 102.722C234.985 101.944 234.693 101.046 234.676 100.029H238.391C238.414 100.455 238.553 100.83 238.809 101.154C239.07 101.472 239.417 101.719 239.849 101.895C240.281 102.071 240.766 102.159 241.306 102.159C241.869 102.159 242.366 102.06 242.798 101.861C243.23 101.662 243.568 101.387 243.812 101.034C244.056 100.682 244.178 100.276 244.178 99.8157C244.178 99.3498 244.048 98.9379 243.786 98.5799C243.531 98.2163 243.161 97.9322 242.678 97.7277C242.201 97.5231 241.633 97.4208 240.974 97.4208H239.346V94.7106H240.974C241.531 94.7106 242.022 94.614 242.448 94.4208C242.88 94.2277 243.215 93.9606 243.454 93.6197C243.693 93.2731 243.812 92.8697 243.812 92.4095C243.812 91.972 243.707 91.5885 243.497 91.2589C243.292 90.9237 243.002 90.6623 242.627 90.4748C242.258 90.2873 241.826 90.1936 241.332 90.1936C240.832 90.1936 240.374 90.2845 239.96 90.4663C239.545 90.6424 239.212 90.8953 238.962 91.2248C238.712 91.5544 238.579 91.9407 238.562 92.3839H235.025C235.042 91.3782 235.329 90.4919 235.886 89.7248C236.443 88.9578 237.193 88.3583 238.136 87.9265C239.085 87.489 240.156 87.2703 241.349 87.2703C242.553 87.2703 243.607 87.489 244.511 87.9265C245.414 88.364 246.116 88.9549 246.616 89.6992C247.122 90.4379 247.372 91.2674 247.366 92.1879C247.372 93.1652 247.068 93.9805 246.454 94.6339C245.846 95.2873 245.053 95.7021 244.076 95.8782V96.0146C245.36 96.1794 246.337 96.6254 247.008 97.3527C247.684 98.0743 248.019 98.9777 248.014 100.063C248.019 101.057 247.732 101.941 247.153 102.713C246.579 103.486 245.786 104.094 244.775 104.537C243.764 104.981 242.605 105.202 241.298 105.202ZM258.001 105.202C256.797 105.202 255.723 104.981 254.78 104.537C253.842 104.094 253.098 103.483 252.547 102.705C251.996 101.927 251.709 101.034 251.686 100.029H255.266C255.305 100.705 255.589 101.253 256.118 101.674C256.646 102.094 257.274 102.304 258.001 102.304C258.581 102.304 259.092 102.177 259.535 101.921C259.984 101.659 260.334 101.299 260.584 100.838C260.839 100.373 260.967 99.8385 260.967 99.2362C260.967 98.6225 260.837 98.0828 260.575 97.6169C260.32 97.151 259.964 96.7873 259.51 96.526C259.055 96.2646 258.535 96.1311 257.95 96.1254C257.439 96.1254 256.942 96.2305 256.459 96.4407C255.981 96.651 255.609 96.9379 255.342 97.3015L252.061 96.7135L252.888 87.5089H263.558V90.526H255.93L255.479 94.8981H255.581C255.888 94.4663 256.351 94.1083 256.97 93.8243C257.589 93.5402 258.283 93.3981 259.05 93.3981C260.101 93.3981 261.038 93.6453 261.862 94.1396C262.686 94.6339 263.337 95.3129 263.814 96.1765C264.291 97.0345 264.527 98.0231 264.521 99.1424C264.527 100.319 264.254 101.364 263.703 102.279C263.158 103.188 262.393 103.904 261.41 104.427C260.433 104.944 259.297 105.202 258.001 105.202ZM274.899 105.347C273.433 105.341 272.172 104.981 271.115 104.265C270.064 103.549 269.254 102.512 268.686 101.154C268.123 99.7958 267.845 98.1623 267.851 96.2532C267.851 94.3498 268.132 92.7277 268.694 91.3867C269.262 90.0458 270.072 89.026 271.123 88.3271C272.18 87.6225 273.439 87.2703 274.899 87.2703C276.359 87.2703 277.615 87.6225 278.666 88.3271C279.723 89.0316 280.535 90.0544 281.103 91.3953C281.672 92.7305 281.953 94.3498 281.947 96.2532C281.947 98.168 281.663 99.8044 281.095 101.162C280.532 102.52 279.726 103.557 278.674 104.273C277.623 104.989 276.365 105.347 274.899 105.347ZM274.899 102.287C275.899 102.287 276.697 101.784 277.294 100.779C277.89 99.7731 278.186 98.2646 278.18 96.2532C278.18 94.9294 278.044 93.8271 277.771 92.9464C277.504 92.0657 277.123 91.4038 276.629 90.9606C276.14 90.5174 275.564 90.2958 274.899 90.2958C273.905 90.2958 273.109 90.793 272.512 91.7873C271.916 92.7816 271.615 94.2703 271.609 96.2532C271.609 97.5941 271.743 98.7135 272.01 99.6112C272.282 100.503 272.666 101.174 273.16 101.623C273.655 102.066 274.234 102.287 274.899 102.287ZM285.76 104.963L292.996 90.6453V90.526H284.567V87.5089H296.814V90.5686L289.57 104.963H285.76Z" fill="#E8E8E8"/>
</g>
<path d="M26.6477 128.979V136.252H25.7955L21.8324 130.542H21.7614V136.252H20.8807V128.979H21.733L25.7102 134.704H25.7812V128.979H26.6477ZM30.5123 136.366C30.0198 136.366 29.5878 136.249 29.2161 136.014C28.8468 135.78 28.5579 135.452 28.3496 135.031C28.1436 134.609 28.0407 134.117 28.0407 133.553C28.0407 132.985 28.1436 132.489 28.3496 132.065C28.5579 131.642 28.8468 131.313 29.2161 131.078C29.5878 130.844 30.0198 130.727 30.5123 130.727C31.0047 130.727 31.4355 130.844 31.8049 131.078C32.1766 131.313 32.4654 131.642 32.6713 132.065C32.8797 132.489 32.9838 132.985 32.9838 133.553C32.9838 134.117 32.8797 134.609 32.6713 135.031C32.4654 135.452 32.1766 135.78 31.8049 136.014C31.4355 136.249 31.0047 136.366 30.5123 136.366ZM30.5123 135.613C30.8863 135.613 31.1941 135.517 31.4355 135.325C31.677 135.134 31.8558 134.881 31.9718 134.569C32.0878 134.256 32.1458 133.918 32.1458 133.553C32.1458 133.189 32.0878 132.849 31.9718 132.534C31.8558 132.219 31.677 131.965 31.4355 131.771C31.1941 131.577 30.8863 131.479 30.5123 131.479C30.1382 131.479 29.8304 131.577 29.589 131.771C29.3475 131.965 29.1687 132.219 29.0527 132.534C28.9367 132.849 28.8787 133.189 28.8787 133.553C28.8787 133.918 28.9367 134.256 29.0527 134.569C29.1687 134.881 29.3475 135.134 29.589 135.325C29.8304 135.517 30.1382 135.613 30.5123 135.613ZM34.2631 136.252V130.798H35.0728V131.65H35.1438C35.2575 131.359 35.4409 131.133 35.6942 130.972C35.9476 130.808 36.2518 130.727 36.6069 130.727C36.9667 130.727 37.2662 130.808 37.5053 130.972C37.7468 131.133 37.935 131.359 38.07 131.65H38.1268C38.2665 131.368 38.476 131.144 38.7553 130.979C39.0347 130.811 39.3697 130.727 39.7603 130.727C40.248 130.727 40.6469 130.879 40.957 131.185C41.2672 131.488 41.4222 131.96 41.4222 132.602V136.252H40.5842V132.602C40.5842 132.199 40.4741 131.912 40.2539 131.739C40.0337 131.566 39.7745 131.479 39.4762 131.479C39.0927 131.479 38.7956 131.595 38.5849 131.827C38.3742 132.057 38.2688 132.348 38.2688 132.701V136.252H37.4165V132.516C37.4165 132.206 37.3159 131.956 37.1147 131.767C36.9135 131.575 36.6542 131.479 36.337 131.479C36.1192 131.479 35.9156 131.537 35.7262 131.653C35.5392 131.769 35.3877 131.93 35.2717 132.136C35.158 132.34 35.1012 132.576 35.1012 132.843V136.252H34.2631ZM45.2415 136.366C44.7159 136.366 44.2625 136.25 43.8814 136.018C43.5026 135.783 43.2102 135.457 43.0043 135.038C42.8007 134.616 42.6989 134.126 42.6989 133.568C42.6989 133.009 42.8007 132.516 43.0043 132.09C43.2102 131.662 43.4967 131.328 43.8636 131.089C44.233 130.847 44.6638 130.727 45.1562 130.727C45.4403 130.727 45.7209 130.774 45.9979 130.869C46.2749 130.963 46.527 131.117 46.7543 131.33C46.9815 131.541 47.1626 131.82 47.2976 132.168C47.4325 132.516 47.5 132.945 47.5 133.454V133.809H43.2955V133.085H46.6477C46.6477 132.777 46.5862 132.502 46.4631 132.261C46.3423 132.019 46.1695 131.829 45.9446 131.689C45.7221 131.549 45.4593 131.479 45.1562 131.479C44.8224 131.479 44.5336 131.562 44.2898 131.728C44.0483 131.891 43.8625 132.104 43.7322 132.367C43.602 132.63 43.5369 132.912 43.5369 133.212V133.695C43.5369 134.107 43.608 134.456 43.75 134.743C43.8944 135.027 44.0945 135.244 44.3501 135.393C44.6058 135.54 44.9029 135.613 45.2415 135.613C45.4616 135.613 45.6605 135.582 45.8381 135.521C46.018 135.457 46.1731 135.362 46.3033 135.237C46.4335 135.109 46.5341 134.95 46.6051 134.761L47.4148 134.988C47.3295 135.263 47.1863 135.504 46.9851 135.712C46.7839 135.918 46.5353 136.079 46.2393 136.195C45.9434 136.309 45.6108 136.366 45.2415 136.366ZM53.647 136.366C53.1925 136.366 52.7912 136.251 52.4432 136.021C52.0952 135.789 51.8229 135.463 51.6264 135.041C51.4299 134.617 51.3317 134.117 51.3317 133.539C51.3317 132.966 51.4299 132.469 51.6264 132.048C51.8229 131.626 52.0964 131.301 52.4467 131.071C52.7971 130.841 53.2019 130.727 53.6612 130.727C54.0163 130.727 54.2969 130.786 54.5028 130.904C54.7112 131.02 54.8698 131.153 54.9787 131.302C55.09 131.449 55.1764 131.569 55.2379 131.664H55.3089V128.979H56.147V136.252H55.3374V135.414H55.2379C55.1764 135.514 55.0888 135.639 54.9751 135.791C54.8615 135.94 54.6993 136.073 54.4886 136.192C54.2779 136.308 53.9974 136.366 53.647 136.366ZM53.7607 135.613C54.0968 135.613 54.3809 135.525 54.6129 135.35C54.8449 135.173 55.0213 134.928 55.142 134.615C55.2628 134.3 55.3232 133.937 55.3232 133.525C55.3232 133.118 55.264 132.761 55.1456 132.456C55.0272 132.148 54.852 131.909 54.62 131.739C54.388 131.566 54.1016 131.479 53.7607 131.479C53.4055 131.479 53.1096 131.571 52.8729 131.753C52.6385 131.933 52.4621 132.178 52.3438 132.488C52.2277 132.796 52.1697 133.141 52.1697 133.525C52.1697 133.913 52.2289 134.266 52.3473 134.583C52.468 134.898 52.6456 135.149 52.88 135.336C53.1167 135.521 53.4103 135.613 53.7607 135.613ZM60.0142 136.366C59.5218 136.366 59.0897 136.249 58.718 136.014C58.3487 135.78 58.0599 135.452 57.8516 135.031C57.6456 134.609 57.5426 134.117 57.5426 133.553C57.5426 132.985 57.6456 132.489 57.8516 132.065C58.0599 131.642 58.3487 131.313 58.718 131.078C59.0897 130.844 59.5218 130.727 60.0142 130.727C60.5066 130.727 60.9375 130.844 61.3068 131.078C61.6785 131.313 61.9673 131.642 62.1733 132.065C62.3816 132.489 62.4858 132.985 62.4858 133.553C62.4858 134.117 62.3816 134.609 62.1733 135.031C61.9673 135.452 61.6785 135.78 61.3068 136.014C60.9375 136.249 60.5066 136.366 60.0142 136.366ZM60.0142 135.613C60.3883 135.613 60.696 135.517 60.9375 135.325C61.179 135.134 61.3577 134.881 61.4737 134.569C61.5897 134.256 61.6477 133.918 61.6477 133.553C61.6477 133.189 61.5897 132.849 61.4737 132.534C61.3577 132.219 61.179 131.965 60.9375 131.771C60.696 131.577 60.3883 131.479 60.0142 131.479C59.6402 131.479 59.3324 131.577 59.0909 131.771C58.8494 131.965 58.6707 132.219 58.5547 132.534C58.4387 132.849 58.3807 133.189 58.3807 133.553C58.3807 133.918 58.4387 134.256 58.5547 134.569C58.6707 134.881 58.8494 135.134 59.0909 135.325C59.3324 135.517 59.6402 135.613 60.0142 135.613ZM68.9498 130.798V131.508H66.123V130.798H68.9498ZM66.9469 129.491H67.785V134.69C67.785 134.926 67.8193 135.104 67.888 135.222C67.959 135.338 68.0489 135.416 68.1578 135.457C68.2691 135.495 68.3863 135.514 68.5094 135.514C68.6017 135.514 68.6775 135.509 68.7367 135.499C68.7959 135.488 68.8432 135.478 68.8787 135.471L69.0492 136.224C68.9924 136.245 68.9131 136.266 68.8113 136.288C68.7095 136.311 68.5804 136.323 68.4242 136.323C68.1874 136.323 67.9554 136.272 67.7282 136.171C67.5033 136.069 67.3162 135.914 67.1671 135.705C67.0203 135.497 66.9469 135.234 66.9469 134.917V129.491ZM70.2104 136.252V130.798H71.0485V136.252H70.2104ZM70.6365 129.889C70.4732 129.889 70.3323 129.833 70.214 129.722C70.098 129.61 70.04 129.477 70.04 129.32C70.04 129.164 70.098 129.03 70.214 128.919C70.3323 128.808 70.4732 128.752 70.6365 128.752C70.7999 128.752 70.9396 128.808 71.0556 128.919C71.1739 129.03 71.2331 129.164 71.2331 129.32C71.2331 129.477 71.1739 129.61 71.0556 129.722C70.9396 129.833 70.7999 129.889 70.6365 129.889ZM74.9556 130.798V131.508H72.1289V130.798H74.9556ZM72.9528 129.491H73.7908V134.69C73.7908 134.926 73.8252 135.104 73.8938 135.222C73.9648 135.338 74.0548 135.416 74.1637 135.457C74.275 135.495 74.3922 135.514 74.5153 135.514C74.6076 135.514 74.6834 135.509 74.7425 135.499C74.8017 135.488 74.8491 135.478 74.8846 135.471L75.055 136.224C74.9982 136.245 74.9189 136.266 74.8171 136.288C74.7153 136.311 74.5863 136.323 74.43 136.323C74.1933 136.323 73.9613 136.272 73.734 136.171C73.5091 136.069 73.3221 135.914 73.1729 135.705C73.0262 135.497 72.9528 135.234 72.9528 134.917V129.491ZM79.6538 134.022V130.798H80.4918V136.252H79.6538V135.329H79.5969C79.4691 135.606 79.2702 135.841 79.0004 136.036C78.7305 136.227 78.3896 136.323 77.9776 136.323C77.6367 136.323 77.3337 136.249 77.0685 136.099C76.8034 135.948 76.5951 135.721 76.4435 135.418C76.292 135.112 76.2163 134.728 76.2163 134.264V130.798H77.0543V134.207C77.0543 134.604 77.1656 134.922 77.3881 135.158C77.613 135.395 77.8995 135.514 78.2475 135.514C78.4558 135.514 78.6677 135.46 78.8832 135.354C79.101 135.247 79.2833 135.084 79.43 134.864C79.5792 134.644 79.6538 134.363 79.6538 134.022ZM82.8649 128.979V136.252H82.0268V128.979H82.8649ZM86.005 136.38C85.6593 136.38 85.3456 136.315 85.0639 136.185C84.7822 136.052 84.5585 135.862 84.3928 135.613C84.227 135.362 84.1442 135.059 84.1442 134.704C84.1442 134.391 84.2057 134.138 84.3288 133.944C84.4519 133.747 84.6165 133.594 84.8224 133.482C85.0284 133.371 85.2557 133.288 85.5043 133.234C85.7552 133.177 86.0073 133.132 86.2607 133.099C86.5921 133.056 86.8608 133.024 87.0668 133.003C87.2751 132.979 87.4266 132.94 87.5213 132.886C87.6184 132.831 87.6669 132.737 87.6669 132.602V132.573C87.6669 132.223 87.571 131.951 87.3793 131.756C87.1899 131.562 86.9022 131.465 86.5163 131.465C86.1162 131.465 85.8026 131.553 85.5753 131.728C85.348 131.903 85.1882 132.09 85.0959 132.289L84.3004 132.005C84.4425 131.674 84.6319 131.416 84.8686 131.231C85.1077 131.044 85.3681 130.914 85.6499 130.84C85.9339 130.764 86.2133 130.727 86.4879 130.727C86.6631 130.727 86.8643 130.748 87.0916 130.791C87.3213 130.831 87.5426 130.915 87.7557 131.043C87.9711 131.171 88.1499 131.363 88.2919 131.622C88.4339 131.88 88.505 132.225 88.505 132.658V136.252H87.6669V135.514H87.6243C87.5675 135.632 87.4728 135.759 87.3402 135.894C87.2076 136.028 87.0313 136.143 86.8111 136.238C86.5909 136.333 86.3222 136.38 86.005 136.38ZM86.1328 135.627C86.4643 135.627 86.7436 135.562 86.9709 135.432C87.2005 135.302 87.3733 135.134 87.4893 134.928C87.6077 134.722 87.6669 134.505 87.6669 134.278V133.511C87.6314 133.553 87.5533 133.592 87.4325 133.628C87.3142 133.661 87.1768 133.691 87.0206 133.717C86.8667 133.74 86.7164 133.762 86.5696 133.781C86.4252 133.797 86.308 133.811 86.218 133.823C86.0002 133.852 85.7966 133.898 85.6072 133.962C85.4202 134.023 85.2687 134.117 85.1527 134.242C85.0391 134.365 84.9822 134.533 84.9822 134.747C84.9822 135.038 85.09 135.258 85.3054 135.407C85.5232 135.554 85.799 135.627 86.1328 135.627ZM90.0346 136.252V130.798H90.8443V131.622H90.9011C91.0005 131.352 91.1805 131.133 91.4409 130.965C91.7013 130.796 91.9949 130.712 92.3216 130.712C92.3831 130.712 92.46 130.714 92.5524 130.716C92.6447 130.718 92.7145 130.722 92.7619 130.727V131.579C92.7335 131.572 92.6684 131.561 92.5666 131.547C92.4672 131.53 92.3618 131.522 92.2505 131.522C91.9854 131.522 91.7486 131.578 91.5403 131.689C91.3343 131.798 91.171 131.949 91.0502 132.144C90.9319 132.335 90.8727 132.554 90.8727 132.8V136.252H90.0346Z" fill="white"/>
<g filter="url(#filter6_di_913_219)">
<path d="M24.4943 156.252H20.8849V146.07H24.5241C25.5483 146.07 26.4299 146.274 27.169 146.682C27.9081 147.086 28.4766 147.668 28.8743 148.427C29.2753 149.186 29.4759 150.094 29.4759 151.151C29.4759 152.212 29.2753 153.123 28.8743 153.886C28.4766 154.648 27.9048 155.233 27.1591 155.641C26.4167 156.048 25.5284 156.252 24.4943 156.252ZM23.0376 154.408H24.4048C25.0412 154.408 25.5765 154.295 26.0107 154.07C26.4482 153.841 26.7763 153.488 26.995 153.011C27.2171 152.53 27.3281 151.91 27.3281 151.151C27.3281 150.399 27.2171 149.784 26.995 149.307C26.7763 148.83 26.4498 148.478 26.0156 148.253C25.5814 148.028 25.0462 147.915 24.4098 147.915H23.0376V154.408ZM32.2512 156.252H29.9444L33.4593 146.07H36.2335L39.7434 156.252H37.4366L34.8862 148.397H34.8066L32.2512 156.252ZM32.1071 152.25H37.5559V153.93H32.1071V152.25ZM49.4853 146.07V156.252H47.6259L43.1962 149.844H43.1216V156.252H40.9689V146.07H42.8581L47.253 152.474H47.3425V146.07H49.4853ZM53.4165 146.07V156.252H51.2638V146.07H53.4165ZM55.1877 156.252V146.07H62.0485V147.845H57.3404V150.271H61.6955V152.046H57.3404V154.477H62.0684V156.252H55.1877ZM63.7599 156.252V146.07H65.9126V154.477H70.2777V156.252H63.7599ZM74.9435 156.252V146.07H79.0202C79.7693 146.07 80.3941 146.181 80.8945 146.403C81.395 146.626 81.7712 146.934 82.0231 147.328C82.275 147.719 82.4009 148.17 82.4009 148.68C82.4009 149.078 82.3214 149.428 82.1623 149.729C82.0032 150.028 81.7844 150.273 81.506 150.465C81.2309 150.654 80.9161 150.788 80.5614 150.868V150.967C80.9492 150.984 81.3121 151.093 81.6502 151.296C81.9916 151.498 82.2683 151.781 82.4805 152.146C82.6926 152.507 82.7987 152.938 82.7987 153.438C82.7987 153.979 82.6644 154.461 82.396 154.885C82.1308 155.306 81.738 155.639 81.2177 155.884C80.6973 156.13 80.056 156.252 79.2937 156.252H74.9435ZM77.0962 154.492H78.8512C79.4511 154.492 79.8886 154.378 80.1637 154.149C80.4388 153.917 80.5763 153.609 80.5763 153.224C80.5763 152.943 80.5084 152.694 80.3725 152.479C80.2366 152.263 80.0427 152.094 79.7908 151.972C79.5423 151.849 79.2456 151.788 78.9009 151.788H77.0962V154.492ZM77.0962 150.331H78.6921C78.9871 150.331 79.2489 150.28 79.4776 150.177C79.7096 150.071 79.8919 149.922 80.0245 149.729C80.1604 149.537 80.2283 149.307 80.2283 149.038C80.2283 148.671 80.0974 148.374 79.8356 148.148C79.5771 147.923 79.2092 147.81 78.7319 147.81H77.0962V150.331ZM84.1994 156.252V146.07H88.2164C88.9854 146.07 89.6416 146.208 90.1852 146.483C90.7321 146.755 91.148 147.141 91.4331 147.641C91.7214 148.139 91.8656 148.724 91.8656 149.396C91.8656 150.072 91.7198 150.654 91.4281 151.141C91.1364 151.625 90.7138 151.996 90.1603 152.255C89.6101 152.514 88.944 152.643 88.1618 152.643H85.4721V150.913H87.8137C88.2247 150.913 88.5661 150.856 88.8379 150.744C89.1097 150.631 89.3118 150.462 89.4444 150.237C89.5803 150.011 89.6483 149.731 89.6483 149.396C89.6483 149.058 89.5803 148.773 89.4444 148.541C89.3118 148.309 89.108 148.134 88.8329 148.014C88.5611 147.892 88.2181 147.83 87.8038 147.83H86.3521V156.252H84.1994ZM89.698 151.619L92.2285 156.252H89.8521L87.3762 151.619H89.698ZM95.1419 156.252H92.835L96.35 146.07H99.1241L102.634 156.252H100.327L97.7768 148.397H97.6973L95.1419 156.252ZM94.9977 152.25H100.447V153.93H94.9977V152.25ZM110.132 149.362C110.063 149.12 109.965 148.906 109.839 148.72C109.713 148.531 109.559 148.372 109.377 148.243C109.198 148.11 108.992 148.009 108.76 147.94C108.532 147.87 108.278 147.835 108 147.835C107.479 147.835 107.022 147.965 106.627 148.223C106.236 148.482 105.931 148.858 105.713 149.352C105.494 149.842 105.385 150.442 105.385 151.151C105.385 151.861 105.492 152.464 105.708 152.961C105.923 153.458 106.228 153.838 106.623 154.099C107.017 154.358 107.483 154.487 108.02 154.487C108.507 154.487 108.923 154.401 109.267 154.229C109.615 154.053 109.881 153.806 110.063 153.488C110.248 153.17 110.341 152.794 110.341 152.359L110.779 152.424H108.154V150.803H112.414V152.086C112.414 152.981 112.225 153.75 111.848 154.393C111.47 155.032 110.949 155.526 110.287 155.874C109.624 156.219 108.865 156.391 108.01 156.391C107.055 156.391 106.217 156.181 105.494 155.76C104.771 155.336 104.208 154.734 103.804 153.955C103.403 153.173 103.202 152.245 103.202 151.171C103.202 150.346 103.321 149.61 103.56 148.964C103.802 148.314 104.14 147.764 104.574 147.313C105.008 146.863 105.514 146.519 106.091 146.284C106.667 146.049 107.292 145.931 107.965 145.931C108.542 145.931 109.078 146.016 109.576 146.185C110.073 146.35 110.514 146.586 110.898 146.891C111.286 147.196 111.602 147.559 111.848 147.979C112.093 148.397 112.25 148.858 112.32 149.362H110.132ZM115.472 156.252H113.165L116.68 146.07H119.454L122.964 156.252H120.657L118.107 148.397H118.027L115.472 156.252ZM115.328 152.25H120.777V153.93H115.328V152.25Z" fill="white"/>
</g>
<path d="M20.8807 183.252V175.979H25.2699V176.761H21.7614V179.218H25.0426V179.999H21.7614V182.471H25.3267V183.252H20.8807ZM27.3686 177.798L28.6754 180.028L29.9822 177.798H30.9482L29.1868 180.525L30.9482 183.252H29.9822L28.6754 181.136L27.3686 183.252H26.4027L28.1357 180.525L26.4027 177.798H27.3686ZM32.144 185.298V177.798H32.9537V178.664H33.0531C33.1146 178.569 33.1999 178.449 33.3088 178.302C33.42 178.153 33.5787 178.02 33.7846 177.904C33.993 177.786 34.2747 177.727 34.6298 177.727C35.0891 177.727 35.4939 177.841 35.8443 178.071C36.1947 178.301 36.4681 178.626 36.6646 179.048C36.8611 179.469 36.9593 179.966 36.9593 180.539C36.9593 181.117 36.8611 181.617 36.6646 182.041C36.4681 182.463 36.1958 182.789 35.8478 183.021C35.4998 183.251 35.0985 183.366 34.644 183.366C34.2936 183.366 34.0131 183.308 33.8024 183.192C33.5917 183.073 33.4295 182.94 33.3159 182.791C33.2022 182.639 33.1146 182.514 33.0531 182.414H32.9821V185.298H32.144ZM32.9679 180.525C32.9679 180.937 33.0282 181.3 33.149 181.615C33.2697 181.928 33.4461 182.173 33.6781 182.35C33.9101 182.525 34.1942 182.613 34.5304 182.613C34.8807 182.613 35.1731 182.521 35.4075 182.336C35.6442 182.149 35.8218 181.898 35.9402 181.583C36.0609 181.266 36.1213 180.913 36.1213 180.525C36.1213 180.141 36.0621 179.796 35.9437 179.488C35.8277 179.178 35.6513 178.933 35.4146 178.753C35.1802 178.571 34.8855 178.479 34.5304 178.479C34.1895 178.479 33.903 178.566 33.671 178.739C33.439 178.909 33.2638 179.148 33.1454 179.456C33.027 179.761 32.9679 180.118 32.9679 180.525ZM38.2377 183.252V177.798H39.0758V183.252H38.2377ZM38.6639 176.889C38.5005 176.889 38.3597 176.833 38.2413 176.722C38.1253 176.61 38.0673 176.477 38.0673 176.32C38.0673 176.164 38.1253 176.03 38.2413 175.919C38.3597 175.808 38.5005 175.752 38.6639 175.752C38.8272 175.752 38.9669 175.808 39.0829 175.919C39.2013 176.03 39.2605 176.164 39.2605 176.32C39.2605 176.477 39.2013 176.61 39.0829 176.722C38.9669 176.833 38.8272 176.889 38.6639 176.889ZM40.6108 183.252V177.798H41.4205V178.622H41.4773C41.5767 178.352 41.7566 178.133 42.017 177.965C42.2775 177.796 42.571 177.712 42.8977 177.712C42.9593 177.712 43.0362 177.714 43.1286 177.716C43.2209 177.718 43.2907 177.722 43.3381 177.727V178.579C43.3097 178.572 43.2446 178.561 43.1428 178.547C43.0433 178.53 42.938 178.522 42.8267 178.522C42.5616 178.522 42.3248 178.578 42.1165 178.689C41.9105 178.798 41.7472 178.949 41.6264 179.144C41.508 179.335 41.4489 179.554 41.4489 179.8V183.252H40.6108ZM45.9366 183.38C45.591 183.38 45.2773 183.315 44.9956 183.185C44.7138 183.052 44.4901 182.862 44.3244 182.613C44.1587 182.362 44.0758 182.059 44.0758 181.704C44.0758 181.391 44.1374 181.138 44.2605 180.944C44.3836 180.747 44.5481 180.594 44.7541 180.482C44.96 180.371 45.1873 180.288 45.4359 180.234C45.6868 180.177 45.939 180.132 46.1923 180.099C46.5237 180.056 46.7924 180.024 46.9984 180.003C47.2067 179.979 47.3583 179.94 47.4529 179.886C47.55 179.831 47.5985 179.737 47.5985 179.602V179.573C47.5985 179.223 47.5027 178.951 47.3109 178.756C47.1215 178.562 46.8339 178.465 46.448 178.465C46.0479 178.465 45.7342 178.553 45.5069 178.728C45.2797 178.903 45.1199 179.09 45.0275 179.289L44.2321 179.005C44.3741 178.674 44.5635 178.416 44.8002 178.231C45.0394 178.044 45.2998 177.914 45.5815 177.84C45.8656 177.764 46.1449 177.727 46.4196 177.727C46.5948 177.727 46.796 177.748 47.0233 177.791C47.2529 177.831 47.4743 177.915 47.6873 178.043C47.9028 178.171 48.0815 178.363 48.2235 178.622C48.3656 178.88 48.4366 179.225 48.4366 179.658V183.252H47.5985V182.514H47.5559C47.4991 182.632 47.4044 182.759 47.2718 182.894C47.1393 183.028 46.9629 183.143 46.7427 183.238C46.5225 183.333 46.2538 183.38 45.9366 183.38ZM46.0645 182.627C46.3959 182.627 46.6752 182.562 46.9025 182.432C47.1322 182.302 47.305 182.134 47.421 181.928C47.5394 181.722 47.5985 181.505 47.5985 181.278V180.511C47.563 180.553 47.4849 180.592 47.3642 180.628C47.2458 180.661 47.1085 180.691 46.9522 180.717C46.7984 180.74 46.648 180.762 46.5012 180.781C46.3568 180.797 46.2396 180.811 46.1497 180.823C45.9319 180.852 45.7283 180.898 45.5389 180.962C45.3519 181.023 45.2003 181.117 45.0843 181.242C44.9707 181.365 44.9139 181.533 44.9139 181.747C44.9139 182.038 45.0216 182.258 45.237 182.407C45.4548 182.554 45.7306 182.627 46.0645 182.627ZM52.1822 183.366C51.6708 183.366 51.2305 183.245 50.8612 183.004C50.4918 182.762 50.2077 182.43 50.0089 182.006C49.81 181.582 49.7106 181.098 49.7106 180.553C49.7106 179.999 49.8124 179.51 50.016 179.087C50.2219 178.661 50.5084 178.328 50.8754 178.089C51.2447 177.847 51.6755 177.727 52.168 177.727C52.5515 177.727 52.8971 177.798 53.2049 177.94C53.5127 178.082 53.7648 178.281 53.9613 178.536C54.1578 178.792 54.2797 179.09 54.3271 179.431H53.489C53.4251 179.183 53.283 178.962 53.0629 178.771C52.8451 178.577 52.5515 178.479 52.1822 178.479C51.8555 178.479 51.569 178.565 51.3228 178.735C51.079 178.903 50.8884 179.141 50.7511 179.449C50.6161 179.754 50.5487 180.113 50.5487 180.525C50.5487 180.946 50.6149 181.313 50.7475 181.626C50.8825 181.938 51.0719 182.181 51.3157 182.354C51.5619 182.527 51.8507 182.613 52.1822 182.613C52.4 182.613 52.5977 182.575 52.7752 182.499C52.9528 182.424 53.1031 182.315 53.2262 182.173C53.3493 182.031 53.4369 181.86 53.489 181.661H54.3271C54.2797 181.983 54.1625 182.273 53.9755 182.531C53.7908 182.787 53.5458 182.991 53.2404 183.142C52.9374 183.291 52.5846 183.366 52.1822 183.366ZM51.7844 183.224H52.4805L52.4237 183.508C52.6083 183.536 52.7776 183.613 52.9315 183.739C53.0853 183.867 53.1623 184.069 53.1623 184.346C53.1623 184.651 53.0356 184.9 52.7823 185.092C52.5314 185.286 52.1609 185.383 51.6708 185.383L51.6424 184.829C51.8626 184.829 52.0449 184.793 52.1893 184.722C52.3361 184.654 52.4094 184.538 52.4094 184.374C52.4094 184.211 52.3491 184.1 52.2283 184.041C52.1076 183.981 51.9123 183.941 51.6424 183.92L51.7844 183.224ZM57.1573 183.38C56.8117 183.38 56.498 183.315 56.2163 183.185C55.9345 183.052 55.7108 182.862 55.5451 182.613C55.3794 182.362 55.2965 182.059 55.2965 181.704C55.2965 181.391 55.3581 181.138 55.4812 180.944C55.6043 180.747 55.7688 180.594 55.9748 180.482C56.1808 180.371 56.408 180.288 56.6566 180.234C56.9076 180.177 57.1597 180.132 57.413 180.099C57.7444 180.056 58.0131 180.024 58.2191 180.003C58.4274 179.979 58.579 179.94 58.6737 179.886C58.7707 179.831 58.8192 179.737 58.8192 179.602V179.573C58.8192 179.223 58.7234 178.951 58.5316 178.756C58.3422 178.562 58.0546 178.465 57.6687 178.465C57.2686 178.465 56.9549 178.553 56.7276 178.728C56.5004 178.903 56.3406 179.09 56.2482 179.289L55.4528 179.005C55.5948 178.674 55.7842 178.416 56.021 178.231C56.2601 178.044 56.5205 177.914 56.8022 177.84C57.0863 177.764 57.3656 177.727 57.6403 177.727C57.8155 177.727 58.0167 177.748 58.244 177.791C58.4736 177.831 58.695 177.915 58.908 178.043C59.1235 178.171 59.3022 178.363 59.4442 178.622C59.5863 178.88 59.6573 179.225 59.6573 179.658V183.252H58.8192V182.514H58.7766C58.7198 182.632 58.6251 182.759 58.4925 182.894C58.36 183.028 58.1836 183.143 57.9634 183.238C57.7433 183.333 57.4746 183.38 57.1573 183.38ZM57.2852 182.627C57.6166 182.627 57.896 182.562 58.1232 182.432C58.3529 182.302 58.5257 182.134 58.6417 181.928C58.7601 181.722 58.8192 181.505 58.8192 181.278V180.511C58.7837 180.553 58.7056 180.592 58.5849 180.628C58.4665 180.661 58.3292 180.691 58.1729 180.717C58.0191 180.74 57.8687 180.762 57.7219 180.781C57.5775 180.797 57.4603 180.811 57.3704 180.823C57.1526 180.852 56.949 180.898 56.7596 180.962C56.5726 181.023 56.421 181.117 56.305 181.242C56.1914 181.365 56.1346 181.533 56.1346 181.747C56.1346 182.038 56.2423 182.258 56.4577 182.407C56.6755 182.554 56.9513 182.627 57.2852 182.627ZM56.6033 177.144L55.9499 177.116C55.9499 176.754 56.0529 176.458 56.2589 176.228C56.4672 175.996 56.7241 175.88 57.0295 175.88C57.1644 175.88 57.284 175.904 57.3881 175.951C57.4923 175.996 57.5917 176.048 57.6864 176.107C57.7811 176.166 57.8782 176.22 57.9776 176.267C58.0794 176.312 58.1942 176.335 58.3221 176.335C58.457 176.335 58.5707 176.282 58.663 176.178C58.7577 176.072 58.805 175.944 58.805 175.795L59.4442 175.852C59.4442 176.221 59.3401 176.514 59.1317 176.732C58.9258 176.95 58.6701 177.059 58.3647 177.059C58.2013 177.059 58.0664 177.037 57.9599 176.992C57.8533 176.944 57.7586 176.891 57.6758 176.832C57.5929 176.773 57.5053 176.72 57.413 176.675C57.3207 176.628 57.207 176.604 57.0721 176.604C56.9371 176.604 56.8247 176.658 56.7347 176.764C56.6471 176.868 56.6033 176.995 56.6033 177.144ZM63.4029 183.366C62.9105 183.366 62.4784 183.249 62.1067 183.014C61.7374 182.78 61.4486 182.452 61.2402 182.031C61.0343 181.609 60.9313 181.117 60.9313 180.553C60.9313 179.985 61.0343 179.489 61.2402 179.065C61.4486 178.642 61.7374 178.313 62.1067 178.078C62.4784 177.844 62.9105 177.727 63.4029 177.727C63.8953 177.727 64.3262 177.844 64.6955 178.078C65.0672 178.313 65.356 178.642 65.562 179.065C65.7703 179.489 65.8745 179.985 65.8745 180.553C65.8745 181.117 65.7703 181.609 65.562 182.031C65.356 182.452 65.0672 182.78 64.6955 183.014C64.3262 183.249 63.8953 183.366 63.4029 183.366ZM63.4029 182.613C63.7769 182.613 64.0847 182.517 64.3262 182.325C64.5676 182.134 64.7464 181.881 64.8624 181.569C64.9784 181.256 65.0364 180.918 65.0364 180.553C65.0364 180.189 64.9784 179.849 64.8624 179.534C64.7464 179.219 64.5676 178.965 64.3262 178.771C64.0847 178.577 63.7769 178.479 63.4029 178.479C63.0288 178.479 62.7211 178.577 62.4796 178.771C62.2381 178.965 62.0594 179.219 61.9434 179.534C61.8274 179.849 61.7694 180.189 61.7694 180.553C61.7694 180.918 61.8274 181.256 61.9434 181.569C62.0594 181.881 62.2381 182.134 62.4796 182.325C62.7211 182.517 63.0288 182.613 63.4029 182.613Z" fill="white"/>
<g filter="url(#filter7_di_913_219)">
<path d="M24.8175 203.476C23.9624 203.473 23.2266 203.262 22.6101 202.845C21.9969 202.427 21.5246 201.822 21.1932 201.03C20.8651 200.238 20.7027 199.285 20.706 198.171C20.706 197.061 20.87 196.115 21.1982 195.332C21.5296 194.55 22.0019 193.955 22.6151 193.548C23.2315 193.137 23.9657 192.931 24.8175 192.931C25.6693 192.931 26.4018 193.137 27.0149 193.548C27.6314 193.959 28.1054 194.555 28.4368 195.337C28.7682 196.116 28.9323 197.061 28.929 198.171C28.929 199.288 28.7633 200.243 28.4318 201.035C28.1037 201.827 27.633 202.432 27.0199 202.849C26.4067 203.267 25.6726 203.476 24.8175 203.476ZM24.8175 201.691C25.4008 201.691 25.8665 201.398 26.2145 200.811C26.5625 200.224 26.7348 199.345 26.7315 198.171C26.7315 197.399 26.652 196.756 26.4929 196.242C26.3371 195.729 26.1151 195.342 25.8267 195.084C25.5417 194.825 25.2053 194.696 24.8175 194.696C24.2375 194.696 23.7734 194.986 23.4254 195.566C23.0774 196.146 22.9018 197.014 22.8984 198.171C22.8984 198.953 22.9763 199.606 23.1321 200.13C23.2912 200.65 23.5149 201.041 23.8033 201.303C24.0916 201.562 24.4297 201.691 24.8175 201.691ZM30.464 203.252V201.701L34.0882 198.345C34.3965 198.047 34.655 197.778 34.8638 197.54C35.0759 197.301 35.2367 197.068 35.3461 196.839C35.4554 196.607 35.5101 196.357 35.5101 196.088C35.5101 195.79 35.4422 195.533 35.3063 195.318C35.1704 195.099 34.9848 194.931 34.7495 194.815C34.5141 194.696 34.2473 194.636 33.949 194.636C33.6375 194.636 33.3657 194.699 33.1337 194.825C32.9017 194.951 32.7227 195.132 32.5968 195.367C32.4708 195.603 32.4078 195.883 32.4078 196.207H30.3645C30.3645 195.541 30.5153 194.963 30.8169 194.472C31.1185 193.982 31.5411 193.602 32.0847 193.334C32.6283 193.065 33.2547 192.931 33.964 192.931C34.6931 192.931 35.3278 193.06 35.8681 193.319C36.4116 193.574 36.8342 193.929 37.1358 194.383C37.4374 194.837 37.5882 195.357 37.5882 195.944C37.5882 196.328 37.512 196.708 37.3596 197.082C37.2104 197.457 36.9436 197.873 36.5591 198.33C36.1747 198.784 35.6328 199.33 34.9334 199.966L33.4469 201.423V201.492H37.7225V203.252H30.464ZM43.7369 192.593L40.4556 204.783H38.631L41.9123 192.593H43.7369ZM48.5009 203.391C47.7585 203.391 47.0972 203.264 46.5172 203.009C45.9405 202.75 45.4848 202.395 45.15 201.945C44.8186 201.491 44.6479 200.967 44.638 200.374H46.8056C46.8188 200.622 46.9 200.841 47.0492 201.03C47.2016 201.215 47.4038 201.36 47.6557 201.462C47.9076 201.565 48.191 201.617 48.5059 201.617C48.834 201.617 49.124 201.559 49.3759 201.443C49.6278 201.327 49.825 201.166 49.9675 200.96C50.11 200.755 50.1813 200.518 50.1813 200.249C50.1813 199.978 50.1051 199.737 49.9526 199.528C49.8034 199.316 49.588 199.151 49.3063 199.031C49.0279 198.912 48.6964 198.852 48.312 198.852H47.3624V197.271H48.312C48.6368 197.271 48.9235 197.215 49.1721 197.102C49.4239 196.99 49.6195 196.834 49.7587 196.635C49.8979 196.433 49.9675 196.197 49.9675 195.929C49.9675 195.674 49.9062 195.45 49.7836 195.258C49.6642 195.062 49.4952 194.91 49.2765 194.8C49.061 194.691 48.8091 194.636 48.5208 194.636C48.2291 194.636 47.9623 194.689 47.7203 194.796C47.4784 194.898 47.2845 195.046 47.1387 195.238C46.9928 195.43 46.915 195.656 46.905 195.914H44.8418C44.8517 195.327 45.0191 194.81 45.3439 194.363C45.6687 193.916 46.1062 193.566 46.6564 193.314C47.2099 193.059 47.8347 192.931 48.5307 192.931C49.2334 192.931 49.8482 193.059 50.3752 193.314C50.9022 193.569 51.3115 193.914 51.6032 194.348C51.8981 194.779 52.044 195.263 52.0407 195.8C52.044 196.37 51.8667 196.845 51.5087 197.227C51.1541 197.608 50.6917 197.85 50.1216 197.952V198.032C50.8707 198.128 51.4408 198.388 51.8319 198.813C52.2263 199.233 52.4218 199.76 52.4185 200.394C52.4218 200.974 52.2544 201.489 51.9164 201.94C51.5816 202.39 51.1193 202.745 50.5293 203.004C49.9393 203.262 49.2632 203.391 48.5009 203.391ZM57.9581 203.476C57.103 203.473 56.3672 203.262 55.7507 202.845C55.1375 202.427 54.6652 201.822 54.3338 201.03C54.0057 200.238 53.8433 199.285 53.8466 198.171C53.8466 197.061 54.0107 196.115 54.3388 195.332C54.6702 194.55 55.1425 193.955 55.7557 193.548C56.3722 193.137 57.1063 192.931 57.9581 192.931C58.8099 192.931 59.5424 193.137 60.1555 193.548C60.772 193.959 61.246 194.555 61.5774 195.337C61.9089 196.116 62.0729 197.061 62.0696 198.171C62.0696 199.288 61.9039 200.243 61.5724 201.035C61.2443 201.827 60.7737 202.432 60.1605 202.849C59.5473 203.267 58.8132 203.476 57.9581 203.476ZM57.9581 201.691C58.5414 201.691 59.0071 201.398 59.3551 200.811C59.7031 200.224 59.8755 199.345 59.8722 198.171C59.8722 197.399 59.7926 196.756 59.6335 196.242C59.4777 195.729 59.2557 195.342 58.9673 195.084C58.6823 194.825 58.3459 194.696 57.9581 194.696C57.3781 194.696 56.9141 194.986 56.5661 195.566C56.218 196.146 56.0424 197.014 56.0391 198.171C56.0391 198.953 56.117 199.606 56.2727 200.13C56.4318 200.65 56.6555 201.041 56.9439 201.303C57.2322 201.562 57.5703 201.691 57.9581 201.691Z" fill="white"/>
</g>
<path d="M177.623 178.252H176.743C176.691 177.999 176.599 177.776 176.469 177.585C176.341 177.393 176.185 177.232 176 177.102C175.818 176.969 175.616 176.87 175.393 176.803C175.171 176.737 174.939 176.704 174.697 176.704C174.257 176.704 173.858 176.815 173.5 177.038C173.145 177.26 172.862 177.588 172.652 178.021C172.443 178.455 172.339 178.986 172.339 179.616C172.339 180.246 172.443 180.777 172.652 181.21C172.862 181.644 173.145 181.971 173.5 182.194C173.858 182.416 174.257 182.528 174.697 182.528C174.939 182.528 175.171 182.495 175.393 182.428C175.616 182.362 175.818 182.264 176 182.134C176.185 182.001 176.341 181.839 176.469 181.647C176.599 181.453 176.691 181.23 176.743 180.979H177.623C177.557 181.351 177.436 181.684 177.261 181.977C177.086 182.271 176.868 182.521 176.608 182.727C176.347 182.93 176.055 183.085 175.731 183.192C175.409 183.298 175.064 183.352 174.697 183.352C174.077 183.352 173.525 183.2 173.042 182.897C172.559 182.594 172.179 182.163 171.902 181.604C171.625 181.046 171.487 180.383 171.487 179.616C171.487 178.849 171.625 178.186 171.902 177.627C172.179 177.068 172.559 176.638 173.042 176.335C173.525 176.032 174.077 175.88 174.697 175.88C175.064 175.88 175.409 175.933 175.731 176.04C176.055 176.146 176.347 176.303 176.608 176.509C176.868 176.712 177.086 176.961 177.261 177.254C177.436 177.546 177.557 177.878 177.623 178.252ZM179.345 175.979L181.504 182.102H181.589L183.748 175.979H184.671L182.001 183.252H181.092L178.421 175.979H179.345ZM191.315 178.252H190.434C190.382 177.999 190.291 177.776 190.161 177.585C190.033 177.393 189.877 177.232 189.692 177.102C189.51 176.969 189.307 176.87 189.085 176.803C188.862 176.737 188.63 176.704 188.389 176.704C187.948 176.704 187.549 176.815 187.192 177.038C186.837 177.26 186.554 177.588 186.343 178.021C186.135 178.455 186.031 178.986 186.031 179.616C186.031 180.246 186.135 180.777 186.343 181.21C186.554 181.644 186.837 181.971 187.192 182.194C187.549 182.416 187.948 182.528 188.389 182.528C188.63 182.528 188.862 182.495 189.085 182.428C189.307 182.362 189.51 182.264 189.692 182.134C189.877 182.001 190.033 181.839 190.161 181.647C190.291 181.453 190.382 181.23 190.434 180.979H191.315C191.248 181.351 191.128 181.684 190.953 181.977C190.777 182.271 190.56 182.521 190.299 182.727C190.039 182.93 189.746 183.085 189.422 183.192C189.1 183.298 188.756 183.352 188.389 183.352C187.768 183.352 187.217 183.2 186.734 182.897C186.251 182.594 185.871 182.163 185.594 181.604C185.317 181.046 185.178 180.383 185.178 179.616C185.178 178.849 185.317 178.186 185.594 177.627C185.871 177.068 186.251 176.638 186.734 176.335C187.217 176.032 187.768 175.88 188.389 175.88C188.756 175.88 189.1 175.933 189.422 176.04C189.746 176.146 190.039 176.303 190.299 176.509C190.56 176.712 190.777 176.961 190.953 177.254C191.128 177.546 191.248 177.878 191.315 178.252Z" fill="white"/>
<path d="M171.716 203.252V201.701L175.34 198.345C175.648 198.047 175.907 197.778 176.116 197.54C176.328 197.301 176.488 197.068 176.598 196.839C176.707 196.607 176.762 196.357 176.762 196.088C176.762 195.79 176.694 195.533 176.558 195.318C176.422 195.099 176.236 194.931 176.001 194.815C175.766 194.696 175.499 194.636 175.201 194.636C174.889 194.636 174.617 194.699 174.385 194.825C174.153 194.951 173.974 195.132 173.848 195.367C173.723 195.603 173.66 195.883 173.66 196.207H171.616C171.616 195.541 171.767 194.963 172.069 194.472C172.37 193.982 172.793 193.602 173.336 193.334C173.88 193.065 174.506 192.931 175.216 192.931C175.945 192.931 176.58 193.06 177.12 193.319C177.663 193.574 178.086 193.929 178.388 194.383C178.689 194.837 178.84 195.357 178.84 195.944C178.84 196.328 178.764 196.708 178.611 197.082C178.462 197.457 178.195 197.873 177.811 198.33C177.426 198.784 176.884 199.33 176.185 199.966L174.699 201.423V201.492H178.974V203.252H171.716ZM184.298 203.391C183.555 203.391 182.894 203.264 182.314 203.009C181.737 202.75 181.281 202.395 180.947 201.945C180.615 201.491 180.445 200.967 180.435 200.374H182.602C182.615 200.622 182.697 200.841 182.846 201.03C182.998 201.215 183.2 201.36 183.452 201.462C183.704 201.565 183.988 201.617 184.302 201.617C184.631 201.617 184.921 201.559 185.173 201.443C185.424 201.327 185.622 201.166 185.764 200.96C185.907 200.755 185.978 200.518 185.978 200.249C185.978 199.978 185.902 199.737 185.749 199.528C185.6 199.316 185.385 199.151 185.103 199.031C184.825 198.912 184.493 198.852 184.109 198.852H183.159V197.271H184.109C184.433 197.271 184.72 197.215 184.969 197.102C185.221 196.99 185.416 196.834 185.555 196.635C185.695 196.433 185.764 196.197 185.764 195.929C185.764 195.674 185.703 195.45 185.58 195.258C185.461 195.062 185.292 194.91 185.073 194.8C184.858 194.691 184.606 194.636 184.317 194.636C184.026 194.636 183.759 194.689 183.517 194.796C183.275 194.898 183.081 195.046 182.935 195.238C182.789 195.43 182.712 195.656 182.702 195.914H180.638C180.648 195.327 180.816 194.81 181.141 194.363C181.465 193.916 181.903 193.566 182.453 193.314C183.007 193.059 183.631 192.931 184.327 192.931C185.03 192.931 185.645 193.059 186.172 193.314C186.699 193.569 187.108 193.914 187.4 194.348C187.695 194.779 187.841 195.263 187.837 195.8C187.841 196.37 187.663 196.845 187.305 197.227C186.951 197.608 186.488 197.85 185.918 197.952V198.032C186.667 198.128 187.237 198.388 187.628 198.813C188.023 199.233 188.218 199.76 188.215 200.394C188.218 200.974 188.051 201.489 187.713 201.94C187.378 202.39 186.916 202.745 186.326 203.004C185.736 203.262 185.06 203.391 184.298 203.391ZM193.755 203.476C192.9 203.473 192.164 203.262 191.547 202.845C190.934 202.427 190.462 201.822 190.13 201.03C189.802 200.238 189.64 199.285 189.643 198.171C189.643 197.061 189.807 196.115 190.135 195.332C190.467 194.55 190.939 193.955 191.552 193.548C192.169 193.137 192.903 192.931 193.755 192.931C194.607 192.931 195.339 193.137 195.952 193.548C196.569 193.959 197.043 194.555 197.374 195.337C197.705 196.116 197.87 197.061 197.866 198.171C197.866 199.288 197.701 200.243 197.369 201.035C197.041 201.827 196.57 202.432 195.957 202.849C195.344 203.267 194.61 203.476 193.755 203.476ZM193.755 201.691C194.338 201.691 194.804 201.398 195.152 200.811C195.5 200.224 195.672 199.345 195.669 198.171C195.669 197.399 195.589 196.756 195.43 196.242C195.274 195.729 195.052 195.342 194.764 195.084C194.479 194.825 194.143 194.696 193.755 194.696C193.175 194.696 192.711 194.986 192.363 195.566C192.015 196.146 191.839 197.014 191.836 198.171C191.836 198.953 191.914 199.606 192.069 200.13C192.228 200.65 192.452 201.041 192.741 201.303C193.029 201.562 193.367 201.691 193.755 201.691Z" fill="white"/>
<g opacity="0.7">
<rect x="303.23" y="176.023" width="36.3209" height="27.4591" rx="4.20321" fill="white" fill-opacity="0.26" stroke="white" stroke-width="0.898396"/>
<path d="M303.362 184.297H313.248C314.533 184.297 315.575 185.338 315.575 186.623V191.13M315.575 203.371V197.963M315.575 197.963V191.13M315.575 197.963H303.362M315.575 191.13H303.362" stroke="white" stroke-width="0.898396"/>
<path d="M339.418 184.297H327.787M327.787 184.297V191.13M327.787 184.297V176.155M327.787 203.371V197.963M327.787 197.963V191.13M327.787 197.963H339.418M327.787 191.13H339.418" stroke="white" stroke-width="0.898396"/>
</g>
</g>
<defs>
<filter id="filter0_f_913_219" x="-29.9362" y="-192.778" width="362.661" height="340.991" filterUnits="userSpaceOnUse" color-interpolation-filters="sRGB">
<feFlood flood-opacity="0" result="BackgroundImageFix"/>
<feBlend mode="normal" in="SourceGraphic" in2="BackgroundImageFix" result="shape"/>
<feGaussianBlur stdDeviation="27.6859" result="effect1_foregroundBlur_913_219"/>
</filter>
<filter id="filter1_f_913_219" x="143.688" y="-102.555" width="390.015" height="319.281" filterUnits="userSpaceOnUse" color-interpolation-filters="sRGB">
<feFlood flood-opacity="0" result="BackgroundImageFix"/>
<feBlend mode="normal" in="SourceGraphic" in2="BackgroundImageFix" result="shape"/>
<feGaussianBlur stdDeviation="38.7603" result="effect1_foregroundBlur_913_219"/>
</filter>
<filter id="filter2_f_913_219" x="174.36" y="-46.057" width="390.015" height="319.281" filterUnits="userSpaceOnUse" color-interpolation-filters="sRGB">
<feFlood flood-opacity="0" result="BackgroundImageFix"/>
<feBlend mode="normal" in="SourceGraphic" in2="BackgroundImageFix" result="shape"/>
<feGaussianBlur stdDeviation="38.7603" result="effect1_foregroundBlur_913_219"/>
</filter>
<filter id="filter3_f_913_219" x="179.666" y="-54.329" width="328.292" height="266.451" filterUnits="userSpaceOnUse" color-interpolation-filters="sRGB">
<feFlood flood-opacity="0" result="BackgroundImageFix"/>
<feBlend mode="normal" in="SourceGraphic" in2="BackgroundImageFix" result="shape"/>
<feGaussianBlur stdDeviation="29.5317" result="effect1_foregroundBlur_913_219"/>
</filter>
<filter id="filter4_f_913_219" x="11.3147" y="-123.538" width="462.114" height="234.361" filterUnits="userSpaceOnUse" color-interpolation-filters="sRGB">
<feFlood flood-opacity="0" result="BackgroundImageFix"/>
<feBlend mode="normal" in="SourceGraphic" in2="BackgroundImageFix" result="shape"/>
<feGaussianBlur stdDeviation="29.5317" result="effect1_foregroundBlur_913_219"/>
</filter>
<filter id="filter5_di_913_219" x="17.942" y="85.3451" width="282.081" height="24.4938" filterUnits="userSpaceOnUse" color-interpolation-filters="sRGB">
<feFlood flood-opacity="0" result="BackgroundImageFix"/>
<feColorMatrix in="SourceAlpha" type="matrix" values="0 0 0 0 0 0 0 0 0 0 0 0 0 0 0 0 0 0 127 0" result="hardAlpha"/>
<feOffset dy="1.28342"/>
<feGaussianBlur stdDeviation="1.60428"/>
<feComposite in2="hardAlpha" operator="out"/>
<feColorMatrix type="matrix" values="0 0 0 0 0.0916667 0 0 0 0 0.0916667 0 0 0 0 0.0916667 0 0 0 0.4 0"/>
<feBlend mode="normal" in2="BackgroundImageFix" result="effect1_dropShadow_913_219"/>
<feBlend mode="normal" in="SourceGraphic" in2="effect1_dropShadow_913_219" result="shape"/>
<feColorMatrix in="SourceAlpha" type="matrix" values="0 0 0 0 0 0 0 0 0 0 0 0 0 0 0 0 0 0 127 0" result="hardAlpha"/>
<feOffset dy="2.56684"/>
<feGaussianBlur stdDeviation="1.28342"/>
<feComposite in2="hardAlpha" operator="arithmetic" k2="-1" k3="1"/>
<feColorMatrix type="matrix" values="0 0 0 0 0.683333 0 0 0 0 0.683333 0 0 0 0 0.683333 0 0 0 0.25 0"/>
<feBlend mode="normal" in2="shape" result="effect2_innerShadow_913_219"/>
</filter>
<filter id="filter6_di_913_219" x="18.3181" y="145.931" width="107.213" height="15.5939" filterUnits="userSpaceOnUse" color-interpolation-filters="sRGB">
<feFlood flood-opacity="0" result="BackgroundImageFix"/>
<feColorMatrix in="SourceAlpha" type="matrix" values="0 0 0 0 0 0 0 0 0 0 0 0 0 0 0 0 0 0 127 0" result="hardAlpha"/>
<feOffset dy="2.56684"/>
<feGaussianBlur stdDeviation="1.28342"/>
<feComposite in2="hardAlpha" operator="out"/>
<feColorMatrix type="matrix" values="0 0 0 0 0.0875 0 0 0 0 0.0875 0 0 0 0 0.0875 0 0 0 0.16 0"/>
<feBlend mode="normal" in2="BackgroundImageFix" result="effect1_dropShadow_913_219"/>
<feBlend mode="normal" in="SourceGraphic" in2="effect1_dropShadow_913_219" result="shape"/>
<feColorMatrix in="SourceAlpha" type="matrix" values="0 0 0 0 0 0 0 0 0 0 0 0 0 0 0 0 0 0 127 0" result="hardAlpha"/>
<feOffset dy="2.56684"/>
<feGaussianBlur stdDeviation="1.28342"/>
<feComposite in2="hardAlpha" operator="arithmetic" k2="-1" k3="1"/>
<feColorMatrix type="matrix" values="0 0 0 0 0.682353 0 0 0 0 0.682353 0 0 0 0 0.682353 0 0 0 0.25 0"/>
<feBlend mode="normal" in2="shape" result="effect2_innerShadow_913_219"/>
</filter>
<filter id="filter7_di_913_219" x="18.1341" y="192.593" width="46.5073" height="17.324" filterUnits="userSpaceOnUse" color-interpolation-filters="sRGB">
<feFlood flood-opacity="0" result="BackgroundImageFix"/>
<feColorMatrix in="SourceAlpha" type="matrix" values="0 0 0 0 0 0 0 0 0 0 0 0 0 0 0 0 0 0 127 0" result="hardAlpha"/>
<feOffset dy="2.56684"/>
<feGaussianBlur stdDeviation="1.28342"/>
<feComposite in2="hardAlpha" operator="out"/>
<feColorMatrix type="matrix" values="0 0 0 0 0.0875 0 0 0 0 0.0875 0 0 0 0 0.0875 0 0 0 0.16 0"/>
<feBlend mode="normal" in2="BackgroundImageFix" result="effect1_dropShadow_913_219"/>
<feBlend mode="normal" in="SourceGraphic" in2="effect1_dropShadow_913_219" result="shape"/>
<feColorMatrix in="SourceAlpha" type="matrix" values="0 0 0 0 0 0 0 0 0 0 0 0 0 0 0 0 0 0 127 0" result="hardAlpha"/>
<feOffset dy="2.56684"/>
<feGaussianBlur stdDeviation="1.28342"/>
<feComposite in2="hardAlpha" operator="arithmetic" k2="-1" k3="1"/>
<feColorMatrix type="matrix" values="0 0 0 0 0.682353 0 0 0 0 0.682353 0 0 0 0 0.682353 0 0 0 0.25 0"/>
<feBlend mode="normal" in2="shape" result="effect2_innerShadow_913_219"/>
</filter>
</defs>
</svg>
