<svg width="110" height="31" viewBox="0 0 110 31" fill="none" xmlns="http://www.w3.org/2000/svg">
<path d="M66.7213 4.40506C64.0924 4.40506 62.0546 5.11466 60.6631 6.51416C59.114 8.07476 58.3389 10.522 58.3631 13.7868C58.4482 20.2728 61.1231 23.3157 66.7696 23.3629C72.4241 23.3629 75.1738 20.2314 75.1738 13.7891C75.1715 7.47446 72.408 4.40506 66.7213 4.40506ZM66.7661 19.7645C63.8244 19.7151 62.3398 17.7233 62.3398 13.8363C62.3398 10.093 63.8348 8.19436 66.7707 8.19436H66.8857C69.8194 8.19436 71.2454 10.0401 71.2454 13.8374C71.2408 17.6589 69.6515 19.7645 66.7661 19.7645Z" fill="white" fill-opacity="0.55"/>
<path d="M38.9544 4.80535C38.679 4.65595 38.3708 4.57695 38.0574 4.57535C37.2524 4.57535 36.4992 5.12965 36.0967 6.02325L32.0234 15.0783L26.8116 5.82315C26.3711 5.04115 25.6616 4.57535 24.9187 4.57535C24.5417 4.57825 24.1743 4.69445 23.8641 4.90885C22.836 5.58965 22.5738 7.01685 23.2558 8.22775L29.8338 19.9083L26.4424 27.3683C25.8674 28.6425 26.2527 30.0352 27.3337 30.6079C27.6091 30.7573 27.9173 30.8364 28.2307 30.8379C29.0357 30.8379 29.7878 30.2824 30.1857 29.39L32.588 24.1L32.6099 24.1105L39.8399 8.03805C40.4184 6.77185 40.0354 5.37925 38.9544 4.80535Z" fill="white" fill-opacity="0.55"/>
<path d="M9.41909 13.7396C13.1083 12.3113 13.7189 15.2001 16.5617 14.1628C19.3217 13.16 19.3758 8.98784 16.6514 7.91494C14.5653 7.09954 13.6085 8.73604 11.4615 6.65564C10.4748 5.69774 10.1298 4.36254 10.208 3.00324C10.2095 2.74244 10.1829 2.48214 10.1286 2.22704C9.34659 -1.11606 4.37862 -0.532962 4.36942 2.89174C4.31882 4.63284 6.00932 6.05424 7.71819 5.77934C9.91819 5.54934 12.3182 7.78844 12.2285 9.67214C12.0905 12.4654 7.64229 14.5021 5.03412 12.7506C3.46322 11.841 1.28512 12.4723 0.443322 14.0812C-1.14023 16.7377 1.81297 20.1382 4.65577 18.8962C7.13399 17.6312 10.5208 19.3988 11.2108 22.0277C11.3591 22.8764 11.6593 23.8033 12.3355 24.3771C14.7079 26.7358 18.8997 24.1218 17.875 20.9605C17.3644 19.0055 15.0069 17.9923 13.1922 18.8594C9.70199 20.244 3.54257 15.7993 9.41909 13.7396Z" fill="white" fill-opacity="0.55"/>
<path d="M48.6628 4.40506C46.0328 4.40506 43.995 5.11466 42.6046 6.51416C41.0544 8.07476 40.2793 10.522 40.3046 13.7868C40.3897 20.2728 43.0646 23.3157 48.7111 23.3629C54.3657 23.3629 57.1142 20.2314 57.1142 13.7891C57.1107 7.47446 54.3484 4.40506 48.6628 4.40506ZM48.7065 19.7645C45.7648 19.7151 44.2744 17.721 44.2744 13.8363C44.2744 10.093 45.7694 8.19436 48.7065 8.19436H48.8215C51.7552 8.19436 53.1812 10.0401 53.1812 13.8374C53.1812 17.6589 51.5919 19.7645 48.7065 19.7645Z" fill="white" fill-opacity="0.55"/>
<path d="M91.2358 6.59244H90.3998C90.3317 6.59934 90.2629 6.59094 90.1984 6.56784C90.1339 6.54474 90.0754 6.50754 90.0272 6.45904C88.6368 5.08704 86.7186 4.35794 84.4853 4.35794C78.8883 4.35794 76.1674 7.47334 76.1674 13.8845C76.1674 20.2302 78.8883 23.3145 84.4853 23.3145C86.1839 23.3145 88.1653 22.751 88.4379 22.5578C88.5693 22.4872 88.7057 22.4265 88.8461 22.3761L88.8277 23.5043C88.8277 24.5278 88.5299 25.3443 87.925 25.9998C87.3419 26.6829 86.346 26.9911 84.705 26.9911H84.575C81.677 26.9911 81.01 25.4961 80.7225 24.8544C80.6972 24.7969 80.6742 24.7451 80.6524 24.7014C80.3718 24.0114 79.8819 23.709 79.0527 23.709H78.1776C77.6428 23.709 77.2576 23.8447 77.0149 24.1138C76.7504 24.4116 76.6573 24.8877 76.732 25.5294C77.0667 26.9688 77.8499 28.2647 78.9688 29.2301C80.1372 30.272 82.014 30.7792 84.705 30.7792C86.959 30.7792 88.8277 30.2203 90.417 29.0703C92.019 27.7662 92.8033 25.7813 92.8033 23.0121V8.32084C92.8079 7.10874 92.3375 6.59244 91.2358 6.59244ZM84.5819 19.7162C81.6368 19.7162 80.1464 17.7543 80.1464 13.8845C80.1464 10.0148 81.5965 8.14724 84.5785 8.14724C86.6197 8.14724 89.0531 9.14194 89.0531 13.8845C89.0531 17.7048 87.5489 19.6679 84.5819 19.7162Z" fill="white" fill-opacity="0.55"/>
<path d="M101.723 4.34644C101.586 4.34644 101.458 4.34064 101.333 4.34064C97.9298 4.34064 95.9278 5.57464 94.8376 8.34154C94.649 8.96134 94.6456 9.43514 94.8376 9.69164C94.9837 9.88824 95.2689 9.98833 95.684 9.98833H98.1738C98.4838 8.55883 99.7058 7.83434 101.805 7.83434C104.269 7.83434 105.311 8.57383 105.398 10.3839C105.398 10.7415 105.146 10.7783 103.508 11.0083C102.296 11.1785 100.465 11.435 98.0448 11.9283C95.055 12.6459 93.7302 14.5733 94.0016 17.8221C94.2442 21.2663 96.6385 23.0557 101.119 23.1454C103.787 23.1454 105.11 22.3542 106.276 21.1663L106.325 21.1134C107.522 19.8426 108.439 19.2515 109.037 18.9767V11.3867C109.076 9.01773 108.544 7.30764 107.412 6.15654C106.218 4.93634 104.358 4.34644 101.723 4.34644ZM105.403 15.8291C105.403 17.9888 104.17 19.1641 101.632 19.4183H101.603C99.8778 19.4183 98.3098 19.2964 97.8618 17.9233L97.8538 17.8888C97.7278 17.1988 97.8218 16.633 98.1368 16.1983C98.4818 15.7291 99.0568 15.4347 99.8618 15.3254C101.967 14.9804 104.586 14.5572 104.952 14.4054L105.398 14.1593L105.403 15.8291Z" fill="white" fill-opacity="0.55"/>
</svg>
